<svg id="svg" xmlns="http://www.w3.org/2000/svg" xmlns:xlink="http://www.w3.org/1999/xlink" width="400" height="400" viewBox="0, 0, 400,400"><g id="svgg"><path id="path0" d="M193.970 112.894 C 189.466 113.984,185.556 116.107,181.884 119.455 L 178.769 122.294 172.525 121.991 C 157.090 121.241,140.352 133.143,140.299 144.906 C 140.285 148.075,139.608 149.551,137.719 150.527 C 136.720 151.044,135.528 152.348,135.069 153.425 C 134.010 155.910,131.067 159.110,129.333 159.660 C 128.600 159.893,128.000 160.444,128.000 160.886 C 128.000 161.802,133.184 166.769,134.140 166.769 C 135.596 166.769,134.574 167.790,131.846 169.062 C 121.351 173.953,122.032 174.525,138.815 174.911 C 155.033 175.283,154.720 175.142,150.748 180.274 C 149.067 182.445,147.692 184.449,147.692 184.726 C 147.692 185.416,155.118 185.349,163.862 184.582 C 172.579 183.818,172.408 183.736,171.347 188.156 C 169.980 193.852,169.464 203.692,170.533 203.692 C 171.012 203.692,175.095 200.784,179.606 197.230 C 184.117 193.676,188.029 190.905,188.299 191.072 C 188.981 191.493,192.215 209.962,193.850 222.769 C 194.218 225.646,195.230 232.466,196.099 237.925 C 198.446 252.656,199.231 252.947,200.862 239.692 C 203.397 219.087,206.883 196.349,208.056 192.769 C 208.985 189.933,209.613 190.151,217.338 196.000 C 227.734 203.871,227.789 203.816,224.945 188.363 C 224.421 185.516,224.064 183.120,224.150 183.038 C 224.237 182.956,229.521 183.588,235.893 184.443 C 250.373 186.386,250.671 186.239,244.331 180.288 L 239.762 176.000 243.112 176.002 C 244.954 176.003,251.820 176.695,258.370 177.540 C 276.790 179.917,277.633 179.528,268.308 172.957 C 262.093 168.578,262.203 168.747,264.308 166.769 C 266.240 164.954,266.249 163.879,264.347 162.382 C 263.522 161.734,262.256 159.617,261.533 157.678 C 260.810 155.740,259.712 153.600,259.092 152.923 C 258.472 152.246,257.095 149.077,256.031 145.880 C 250.633 129.660,239.805 121.895,222.530 121.857 C 217.760 121.846,217.632 121.805,215.107 119.478 C 208.445 113.337,201.315 111.116,193.970 112.894 M195.692 114.213 C 195.692 114.980,193.668 121.590,193.099 122.679 C 192.554 123.724,192.429 123.674,191.602 122.079 C 191.105 121.122,190.152 119.455,189.484 118.374 L 188.269 116.408 191.519 115.159 C 195.056 113.800,195.692 113.656,195.692 114.213 M205.538 115.312 C 207.531 116.218,207.780 118.174,206.143 120.050 C 205.167 121.169,204.758 121.328,204.499 120.692 C 204.309 120.227,203.704 119.392,203.154 118.838 C 202.263 117.939,200.615 114.873,200.615 114.113 C 200.615 113.716,203.659 114.456,205.538 115.312 M217.827 127.896 L 217.808 131.385 215.370 125.538 C 214.029 122.323,212.929 119.600,212.927 119.488 C 212.925 119.376,214.031 120.437,215.385 121.846 C 217.673 124.228,217.845 124.653,217.827 127.896 M181.464 123.846 C 180.850 125.623,180.316 127.631,180.278 128.308 C 180.218 129.361,180.104 129.307,179.488 127.936 C 179.093 127.054,178.389 125.877,177.925 125.320 C 177.185 124.434,177.241 124.308,178.368 124.308 C 179.085 124.308,180.260 123.490,181.020 122.462 C 181.771 121.446,182.429 120.615,182.483 120.615 C 182.536 120.615,182.078 122.069,181.464 123.846 M209.108 123.200 C 210.211 124.304,209.999 125.970,208.711 126.307 C 206.340 126.927,207.102 130.570,209.509 130.119 C 210.728 129.890,211.718 130.006,211.966 130.406 C 212.234 130.840,211.647 131.077,210.308 131.077 C 207.795 131.077,206.910 131.744,204.335 135.580 C 202.100 138.910,201.026 139.569,199.670 138.443 C 198.331 137.332,198.260 137.558,197.849 144.276 C 197.414 151.369,198.070 153.846,200.382 153.846 C 201.288 153.846,201.846 154.206,201.846 154.791 C 201.846 155.534,201.592 155.600,200.656 155.099 C 198.914 154.166,198.154 154.316,198.154 155.590 C 198.154 157.318,197.686 157.451,195.388 156.376 C 193.063 155.287,192.529 153.846,194.450 153.846 C 195.761 153.846,196.719 151.498,196.084 149.842 C 195.887 149.331,196.008 148.172,196.353 147.266 C 196.799 146.094,196.764 145.101,196.231 143.816 C 195.592 142.272,195.633 141.929,196.511 141.437 C 197.200 141.051,197.538 140.061,197.538 138.431 C 197.538 135.532,196.619 135.211,196.077 137.922 C 195.745 139.582,195.562 139.735,194.729 139.043 C 193.027 137.631,191.793 134.769,192.887 134.769 C 193.622 134.769,193.535 134.311,192.447 132.462 L 191.090 130.154 192.859 131.538 C 194.601 132.902,196.320 133.364,196.295 132.462 C 196.268 131.541,191.163 128.356,190.914 129.104 C 190.742 129.621,190.334 129.657,189.526 129.224 C 188.206 128.518,187.213 129.481,188.449 130.270 C 188.879 130.545,189.641 131.323,190.143 132.000 C 191.030 133.196,191.020 133.200,189.787 132.154 C 187.416 130.141,181.538 132.263,181.538 135.132 C 181.538 136.276,183.032 136.243,184.000 135.077 C 185.717 133.008,188.447 134.297,189.975 137.899 L 190.650 139.490 188.386 138.885 C 187.140 138.553,184.852 138.471,183.302 138.703 L 180.484 139.126 180.484 141.896 C 180.484 145.769,183.219 146.703,191.538 145.672 C 194.446 145.311,195.978 147.298,193.821 148.631 C 193.469 148.849,193.337 149.521,193.529 150.124 C 193.785 150.931,193.379 151.429,192.003 151.999 C 189.432 153.064,189.205 153.681,190.876 155.074 C 192.084 156.080,192.139 156.270,191.231 156.287 C 190.638 156.298,190.154 156.494,190.154 156.721 C 190.154 156.948,190.638 157.702,191.231 158.397 C 191.998 159.297,191.655 159.178,190.041 157.984 C 188.794 157.062,187.410 156.303,186.964 156.298 C 186.360 156.291,186.384 156.143,187.059 155.716 C 188.180 155.007,187.479 154.176,186.180 154.674 C 185.658 154.874,185.231 155.617,185.231 156.325 C 185.231 157.032,185.473 157.461,185.769 157.278 C 186.065 157.095,186.487 158.068,186.707 159.439 C 186.926 160.811,188.041 163.792,189.185 166.064 C 193.238 174.111,191.356 174.812,186.702 166.988 C 182.737 160.322,181.523 156.919,182.614 155.532 C 184.288 153.405,184.033 149.084,182.212 148.719 C 178.580 147.993,178.933 137.751,182.885 129.202 C 186.359 121.686,188.213 121.390,193.283 127.546 C 197.138 132.228,198.579 132.920,201.533 131.511 C 203.833 130.414,204.559 128.873,202.462 129.538 C 200.908 130.032,200.915 129.579,202.505 127.006 C 204.802 123.290,207.590 121.683,209.108 123.200 M173.828 124.154 C 173.576 124.746,172.964 126.959,172.468 129.071 L 171.566 132.912 169.841 131.533 C 167.232 129.447,165.738 124.929,167.179 123.487 C 168.226 122.440,174.297 123.049,173.828 124.154 M229.002 124.711 C 230.094 126.028,230.065 136.180,228.962 138.769 L 228.176 140.615 226.759 135.779 C 225.979 133.119,224.533 129.311,223.545 127.317 L 221.748 123.692 224.953 123.692 C 227.184 123.692,228.413 124.002,229.002 124.711 M161.505 127.710 C 160.677 129.581,160.000 131.503,160.000 131.981 C 160.000 133.601,158.778 133.616,158.044 132.005 C 157.490 130.788,156.934 130.447,155.734 130.586 C 152.811 130.925,153.300 128.384,156.430 126.968 C 163.742 123.661,163.322 123.600,161.505 127.710 M239.077 126.949 C 242.762 128.936,242.769 128.945,242.648 131.599 C 242.479 135.287,240.523 141.051,240.007 139.385 C 239.797 138.708,239.156 137.124,238.582 135.866 C 238.008 134.608,237.538 133.284,237.538 132.925 C 237.538 132.566,236.704 130.619,235.683 128.598 C 233.518 124.309,233.867 124.139,239.077 126.949 M150.462 135.245 L 150.462 140.026 148.415 139.786 C 144.938 139.379,144.591 137.345,147.356 133.577 C 150.330 129.526,150.462 129.597,150.462 135.245 M204.308 131.041 C 204.308 131.399,203.892 131.692,203.385 131.692 C 202.877 131.692,202.462 131.969,202.462 132.308 C 202.462 133.144,203.164 133.051,204.498 132.040 C 205.202 131.506,205.372 131.047,204.960 130.792 C 204.601 130.570,204.308 130.682,204.308 131.041 M249.793 136.625 C 252.037 140.271,252.109 141.154,250.396 143.965 C 248.715 146.723,248.282 145.902,247.739 138.923 C 247.250 132.632,247.301 132.575,249.793 136.625 M212.579 136.701 C 212.636 137.995,212.370 138.256,210.998 138.256 C 209.758 138.256,209.434 138.014,209.693 137.282 C 210.690 134.460,212.465 134.103,212.579 136.701 M185.019 142.441 C 184.628 143.277,184.212 143.683,184.096 143.344 C 183.794 142.469,184.470 140.923,185.154 140.923 C 185.476 140.923,185.417 141.593,185.019 142.441 M206.276 142.832 C 206.088 144.111,205.833 144.477,205.502 143.942 C 205.231 143.503,205.276 142.644,205.603 142.033 C 206.443 140.463,206.597 140.645,206.276 142.832 M143.939 145.253 C 143.975 145.808,143.492 146.198,142.769 146.198 C 141.365 146.198,141.240 145.432,142.240 142.963 L 142.942 141.231 143.410 142.769 C 143.667 143.615,143.905 144.733,143.939 145.253 M166.042 143.101 C 170.771 144.505,169.774 146.538,162.304 150.725 C 159.100 152.521,157.067 154.641,157.404 155.835 C 157.474 156.083,156.356 156.881,154.920 157.609 C 153.483 158.336,150.785 159.985,148.923 161.274 C 143.047 165.343,140.488 165.176,143.104 160.893 C 145.549 156.892,146.536 154.435,146.167 153.273 C 145.650 151.642,155.561 144.074,159.964 142.737 C 162.253 142.043,162.538 142.060,166.042 143.101 M238.314 145.720 C 245.886 149.540,249.811 153.211,249.421 156.110 C 249.152 158.112,249.381 159.174,250.454 160.911 C 251.212 162.138,251.668 163.307,251.466 163.508 C 250.993 163.981,246.381 160.791,245.002 159.037 C 243.865 157.592,239.382 155.077,237.942 155.077 C 237.461 155.077,236.925 154.537,236.753 153.876 C 236.560 153.139,234.871 151.935,232.379 150.757 C 228.793 149.063,226.462 147.088,226.462 145.745 C 226.462 145.246,230.858 144.166,233.298 144.066 C 234.181 144.030,236.438 144.774,238.314 145.720 M213.981 146.403 C 215.945 146.487,215.148 147.941,212.750 148.647 C 211.131 149.124,210.798 149.512,210.925 150.769 C 211.296 154.437,212.111 156.308,213.338 156.308 C 214.548 156.308,213.975 158.056,211.156 162.966 C 209.928 165.105,208.275 168.141,207.482 169.712 C 206.252 172.151,205.953 172.412,205.439 171.494 C 204.738 170.240,206.667 163.766,209.008 159.517 C 210.822 156.225,210.900 154.462,209.231 154.462 C 208.554 154.462,208.000 154.738,208.000 155.077 C 208.000 155.415,208.316 155.692,208.701 155.692 C 209.348 155.692,208.027 156.680,203.463 159.609 C 202.490 160.233,201.885 160.435,202.117 160.059 C 202.349 159.683,203.353 158.955,204.347 158.441 C 206.497 157.329,206.696 156.316,204.769 156.287 L 203.385 156.267 204.777 155.105 C 205.544 154.466,206.513 153.800,206.931 153.626 C 207.503 153.387,207.461 153.107,206.766 152.500 C 205.129 151.073,204.461 148.154,205.527 147.088 C 206.394 146.221,207.550 146.128,213.981 146.403 M255.114 151.816 C 254.499 153.421,254.058 152.284,254.557 150.380 C 254.899 149.079,255.082 148.908,255.255 149.728 C 255.383 150.340,255.320 151.280,255.114 151.816 M178.462 151.385 C 178.462 151.723,178.062 152.000,177.575 152.000 C 177.087 152.000,176.517 151.723,176.308 151.385 C 176.099 151.046,176.498 150.769,177.194 150.769 C 177.891 150.769,178.462 151.046,178.462 151.385 M217.694 155.603 C 216.770 155.975,216.483 155.230,216.975 153.739 L 217.448 152.308 217.841 153.846 C 218.057 154.692,217.991 155.483,217.694 155.603 M142.670 155.311 C 142.797 155.979,142.213 157.097,141.291 157.952 C 140.374 158.802,139.692 160.104,139.692 161.006 C 139.692 162.059,139.287 162.683,138.462 162.899 C 136.864 163.316,136.906 163.931,138.615 165.123 C 139.813 165.959,139.850 166.094,138.891 166.122 C 137.519 166.162,133.051 163.658,132.649 162.624 C 132.417 162.028,132.607 162.023,133.533 162.601 C 135.027 163.534,135.676 162.926,134.846 161.373 C 134.322 160.395,134.536 159.864,136.026 158.436 C 137.027 157.477,137.846 156.211,137.846 155.622 C 137.846 153.664,142.301 153.377,142.670 155.311 M174.819 155.919 C 172.244 160.087,173.165 163.807,177.231 165.649 C 177.838 165.924,177.575 166.082,176.462 166.111 C 172.278 166.218,170.646 159.607,173.901 155.740 C 175.996 153.250,176.418 153.332,174.819 155.919 M224.980 157.887 C 225.450 159.011,225.721 160.293,225.584 160.735 C 225.446 161.177,225.169 162.292,224.967 163.213 C 224.766 164.134,224.029 165.193,223.331 165.567 C 221.967 166.297,222.596 164.252,224.003 163.383 C 224.934 162.807,224.734 158.545,223.712 157.195 C 222.637 155.774,222.497 154.836,223.447 155.423 C 223.820 155.654,224.510 156.763,224.980 157.887 M256.339 157.279 C 257.672 157.637,259.343 161.932,258.968 164.035 C 258.833 164.790,259.250 165.267,260.262 165.515 C 262.336 166.022,262.481 167.038,260.602 167.894 C 257.548 169.285,253.133 168.361,255.774 166.883 C 256.696 166.368,256.591 165.989,254.794 163.325 C 251.409 158.310,251.972 156.106,256.339 157.279 M199.015 161.375 C 199.388 161.624,198.845 161.832,197.810 161.837 C 196.775 161.842,195.390 161.415,194.733 160.889 C 193.579 159.965,193.584 159.954,194.883 160.581 C 196.795 161.505,197.531 161.389,197.587 160.154 C 197.626 159.296,197.707 159.265,197.987 160.000 C 198.180 160.508,198.643 161.127,199.015 161.375 M99.271 169.890 C 93.101 172.194,97.410 184.834,104.940 186.519 C 108.567 187.331,109.899 188.293,111.917 191.559 L 113.232 193.686 111.905 196.686 C 109.024 203.200,103.149 207.929,98.903 207.151 C 92.996 206.070,89.265 215.865,94.379 219.026 C 95.520 219.731,96.918 220.308,97.486 220.308 C 98.990 220.308,107.218 215.661,108.917 213.853 C 112.359 210.188,112.712 211.971,109.538 216.995 C 108.185 219.139,107.077 221.246,107.076 221.677 C 107.076 222.109,106.232 224.246,105.200 226.427 C 100.342 236.697,107.722 239.482,116.158 230.562 C 119.473 227.057,120.076 225.340,118.462 224.000 C 117.136 222.900,117.261 222.477,120.019 218.743 C 123.860 213.544,124.682 214.213,122.189 220.510 C 121.362 222.599,120.202 227.046,119.612 230.393 L 118.539 236.479 119.953 237.624 C 125.105 241.796,136.263 231.852,131.442 227.384 C 129.478 225.564,129.477 225.444,131.407 222.604 C 134.307 218.336,136.604 219.805,138.123 226.900 C 139.266 232.236,139.524 233.054,141.875 238.769 C 146.010 248.822,151.714 248.147,149.336 237.887 C 147.358 229.355,147.080 226.938,147.468 221.658 C 147.683 218.715,148.055 216.031,148.294 215.692 C 148.533 215.354,149.179 213.914,149.731 212.493 C 150.283 211.073,151.988 208.078,153.521 205.839 C 158.099 199.152,155.438 188.928,149.117 188.922 C 148.503 188.922,146.936 187.790,145.635 186.408 C 143.718 184.370,142.983 183.967,141.750 184.277 C 140.640 184.555,139.718 184.229,138.340 183.069 C 133.310 178.837,124.444 177.103,119.148 179.315 C 114.548 181.237,113.410 180.829,108.308 175.426 C 103.442 170.273,101.474 169.067,99.271 169.890 M102.120 171.674 C 102.734 172.003,103.674 173.364,104.208 174.699 C 105.294 177.413,106.368 178.377,107.060 177.258 C 107.398 176.711,107.621 176.771,107.895 177.487 C 108.132 178.104,107.937 178.462,107.365 178.462 C 106.868 178.462,106.462 178.771,106.462 179.149 C 106.462 179.527,106.954 179.707,107.557 179.549 C 108.159 179.392,109.001 179.637,109.427 180.093 C 110.055 180.766,110.023 180.923,109.255 180.923 C 108.100 180.923,108.080 181.495,109.185 182.951 C 110.135 184.204,112.768 183.888,114.595 182.302 C 115.534 181.487,116.002 181.498,118.775 182.405 C 120.492 182.967,122.162 183.262,122.487 183.061 C 122.811 182.861,123.077 182.990,123.077 183.348 C 123.077 184.848,124.799 183.850,125.138 182.154 C 125.459 180.550,125.772 180.309,127.523 180.321 C 135.022 180.371,139.088 187.998,133.846 192.180 C 131.166 194.319,130.927 196.010,133.385 195.450 C 150.555 191.531,157.931 198.199,149.273 209.812 C 148.403 210.978,147.692 212.431,147.692 213.043 C 147.692 213.717,147.241 214.154,146.544 214.154 C 145.299 214.154,145.323 213.399,146.109 227.692 C 146.267 230.569,146.953 235.116,147.632 237.796 C 148.966 243.052,148.682 245.209,146.892 243.420 C 145.464 241.991,144.839 238.168,145.919 237.467 C 146.610 237.018,146.528 236.713,145.483 235.842 C 143.511 234.198,142.507 231.179,143.386 229.536 C 144.000 228.388,143.909 228.052,142.764 227.250 C 141.391 226.288,141.321 224.684,142.493 220.987 C 142.922 219.630,142.822 219.539,141.243 219.841 C 140.299 220.021,138.053 219.749,136.251 219.237 L 132.975 218.305 131.356 220.229 C 129.969 221.878,128.000 222.826,128.000 221.846 C 128.000 221.283,130.452 219.077,131.077 219.077 C 131.415 219.077,131.692 218.820,131.692 218.505 C 131.692 217.556,129.829 216.000,128.691 216.000 C 128.104 216.000,126.685 215.308,125.538 214.462 C 122.695 212.364,122.350 212.465,120.011 216.075 C 117.977 219.214,117.966 219.221,117.160 217.767 C 116.066 215.793,116.023 215.889,118.786 214.184 C 121.874 212.279,121.860 212.197,118.162 210.465 C 114.448 208.726,111.701 209.327,107.693 212.757 C 106.348 213.909,105.004 214.702,104.707 214.518 C 104.410 214.335,103.011 215.286,101.596 216.631 C 98.712 219.375,98.009 219.527,95.200 218.020 L 93.231 216.962 96.116 216.611 C 97.703 216.418,99.574 215.741,100.274 215.107 C 101.574 213.931,102.775 213.172,106.308 211.296 C 107.408 210.712,108.308 210.008,108.308 209.732 C 108.308 209.456,109.309 209.231,110.533 209.231 C 112.456 209.231,112.715 209.063,112.437 208.000 C 112.228 207.200,112.418 206.769,112.981 206.769 C 113.457 206.769,113.846 206.371,113.846 205.884 C 113.846 204.419,118.566 204.105,124.279 205.189 C 129.692 206.216,131.350 206.086,131.924 204.592 C 132.114 204.097,132.762 203.691,133.365 203.689 C 135.770 203.681,139.077 202.378,139.077 201.438 C 139.077 200.788,138.690 200.573,137.895 200.781 C 137.041 201.004,136.616 200.702,136.362 199.690 C 135.979 198.163,134.009 197.049,133.642 198.151 C 133.494 198.594,133.166 198.520,132.707 197.940 C 131.714 196.683,125.642 195.077,121.886 195.077 C 116.439 195.077,112.000 191.556,112.000 187.235 C 112.000 186.159,108.349 184.615,105.802 184.615 C 102.304 184.615,101.526 184.093,99.934 180.676 C 97.179 174.759,98.411 169.689,102.120 171.674 M202.462 174.954 C 202.462 175.394,202.129 176.086,201.723 176.492 C 201.317 176.898,200.625 177.231,200.185 177.231 C 199.015 177.231,199.208 175.549,200.462 174.819 C 201.923 173.967,202.462 174.004,202.462 174.954 M195.950 175.143 C 197.344 175.678,197.153 177.231,195.692 177.231 C 195.015 177.231,194.462 177.115,194.462 176.973 C 194.462 176.832,194.293 176.278,194.088 175.743 C 193.696 174.720,194.322 174.518,195.950 175.143 M256.308 182.115 C 255.631 182.427,253.904 182.702,252.470 182.726 C 250.113 182.765,249.780 182.966,249.006 184.820 C 247.944 187.361,245.502 189.335,242.381 190.175 C 241.072 190.528,240.000 191.083,240.000 191.408 C 240.000 191.734,239.377 192.004,238.615 192.009 C 236.255 192.025,235.767 192.815,235.378 197.248 C 235.171 199.608,234.881 202.134,234.735 202.861 C 234.554 203.760,235.273 205.139,236.981 207.168 C 238.362 208.810,240.449 212.222,241.618 214.750 C 242.788 217.277,244.160 219.805,244.668 220.366 C 245.492 221.276,245.456 221.742,244.334 224.693 C 243.643 226.512,243.082 228.692,243.088 229.538 C 243.093 230.385,242.359 233.315,241.456 236.051 C 239.377 242.351,239.683 244.308,242.750 244.308 C 245.099 244.308,247.245 242.057,248.514 238.262 C 248.891 237.136,249.877 235.410,250.705 234.425 C 251.534 233.440,252.792 231.085,253.501 229.190 C 256.350 221.574,259.816 219.325,261.456 224.028 C 261.815 225.059,264.197 229.791,266.749 234.544 C 269.301 239.296,271.562 243.922,271.773 244.823 C 273.170 250.770,278.798 253.617,280.593 249.285 C 281.520 247.048,279.740 239.314,277.143 234.291 L 276.149 232.370 277.745 233.416 C 280.942 235.510,285.063 234.103,287.005 230.253 C 287.938 228.403,287.762 227.545,285.912 224.949 C 285.199 223.948,284.041 221.961,283.340 220.533 L 282.064 217.939 286.989 219.736 C 299.400 224.265,300.359 214.544,288.389 205.550 C 279.328 198.742,280.196 197.543,293.443 198.565 C 302.964 199.299,308.305 195.489,305.718 189.810 C 305.000 188.235,304.851 188.193,301.564 188.640 C 291.067 190.067,284.699 188.942,277.895 184.457 C 275.211 182.688,274.336 182.450,270.202 182.356 C 267.637 182.298,263.738 182.092,261.538 181.898 C 259.338 181.705,256.985 181.802,256.308 182.115 M269.975 186.026 C 270.384 186.288,271.262 186.164,271.925 185.750 C 273.744 184.614,275.543 186.157,274.169 187.675 C 272.795 189.194,273.017 189.723,274.878 189.367 C 275.850 189.181,276.876 189.404,277.383 189.911 C 277.855 190.383,278.879 190.769,279.659 190.769 C 280.438 190.769,282.265 191.189,283.718 191.701 C 285.170 192.214,286.798 192.503,287.333 192.343 C 290.681 191.348,294.934 191.375,295.682 192.397 C 296.412 193.396,296.652 193.380,299.696 192.115 C 304.454 190.137,305.648 190.432,304.902 193.403 C 304.114 196.545,297.217 197.746,292.245 195.607 C 289.261 194.323,289.163 194.319,288.339 195.446 C 287.440 196.676,280.480 196.857,279.072 195.688 C 278.063 194.851,270.554 195.266,269.820 196.201 C 269.467 196.649,267.460 197.172,265.359 197.363 C 261.648 197.699,260.523 198.418,262.513 199.182 C 263.770 199.664,262.476 200.592,260.527 200.606 C 259.802 200.611,259.055 201.016,258.867 201.505 C 258.619 202.151,257.925 202.297,256.326 202.038 C 254.733 201.779,253.805 201.972,252.960 202.736 C 252.048 203.561,251.525 203.646,250.553 203.126 C 248.838 202.208,247.385 202.295,247.385 203.314 C 247.385 204.112,250.831 206.154,252.178 206.154 C 252.513 206.154,252.748 206.638,252.701 207.231 C 252.603 208.462,257.505 208.555,259.731 207.364 C 261.572 206.379,261.181 207.735,259.231 209.103 C 258.300 209.755,256.027 210.846,254.180 211.528 C 249.997 213.070,249.260 214.398,252.773 214.063 C 254.674 213.881,255.161 214.021,254.910 214.675 C 254.547 215.621,258.246 215.132,259.354 214.089 C 259.675 213.786,261.075 213.538,262.464 213.538 C 265.528 213.538,270.108 210.848,271.737 208.090 C 272.344 207.062,273.080 206.369,273.373 206.549 C 273.665 206.730,273.337 207.838,272.644 209.012 C 271.951 210.187,271.385 211.667,271.385 212.301 C 271.385 212.936,270.845 213.627,270.185 213.836 C 269.526 214.046,268.826 214.722,268.630 215.339 C 268.434 215.956,267.035 216.934,265.521 217.512 C 262.069 218.831,262.052 219.703,265.449 221.100 C 267.137 221.794,268.406 222.816,268.888 223.869 C 269.309 224.787,270.029 226.300,270.489 227.230 C 271.211 228.688,271.186 229.300,270.308 231.669 C 269.248 234.528,269.420 235.217,271.231 235.379 C 274.958 235.712,277.274 238.507,275.386 240.395 C 273.823 241.957,274.192 244.308,276.000 244.308 C 277.195 244.308,277.538 244.624,277.538 245.723 C 277.538 246.502,277.847 247.447,278.223 247.823 C 279.028 248.628,278.442 249.846,277.249 249.846 C 276.028 249.846,273.231 246.275,273.231 244.716 C 273.231 243.977,271.390 239.775,269.141 235.378 C 266.891 230.982,264.382 226.056,263.564 224.432 C 260.660 218.664,249.863 218.460,249.851 224.173 C 249.848 225.847,249.544 226.596,248.769 226.840 C 248.177 227.027,247.138 227.404,246.462 227.679 C 245.130 228.219,244.981 228.099,248.462 229.292 C 249.418 229.620,249.390 229.719,248.212 230.174 C 247.427 230.478,246.716 231.457,246.471 232.574 C 246.243 233.612,245.663 234.462,245.182 234.462 C 244.062 234.462,244.060 235.533,245.180 236.652 C 246.133 237.606,245.823 239.408,244.312 241.692 C 242.269 244.781,240.750 242.528,242.222 238.593 C 242.755 237.167,243.692 233.923,244.303 231.385 C 244.915 228.846,245.744 225.689,246.147 224.369 C 246.803 222.217,246.721 221.644,245.359 218.830 C 244.523 217.104,243.365 214.031,242.785 212.000 C 241.703 208.215,240.903 206.769,239.888 206.769 C 239.571 206.769,239.491 207.115,239.709 207.538 C 239.928 207.962,239.545 207.616,238.859 206.771 C 237.341 204.901,236.352 201.275,236.767 199.103 C 237.269 196.481,238.704 196.165,245.298 197.226 C 249.925 197.971,251.422 198.018,252.115 197.443 C 252.817 196.860,253.392 196.935,254.852 197.797 C 258.200 199.775,257.114 195.008,253.708 192.776 C 252.231 191.808,251.929 190.232,252.878 188.453 C 253.192 187.865,253.592 186.917,253.768 186.345 C 254.109 185.231,268.301 184.951,269.975 186.026 M133.538 206.154 C 132.721 207.682,129.773 207.779,124.657 206.447 C 120.970 205.486,119.419 205.751,121.440 206.995 C 122.062 207.379,123.982 208.731,125.705 210.000 C 127.428 211.269,129.445 212.308,130.188 212.308 C 132.764 212.308,135.385 211.535,135.385 210.774 C 135.385 210.210,136.498 210.090,139.643 210.315 C 144.151 210.638,147.077 210.211,147.077 209.231 C 147.077 208.886,145.954 208.793,144.384 209.008 C 142.892 209.213,141.176 209.088,140.538 208.729 C 139.650 208.230,140.022 208.160,142.154 208.426 C 145.880 208.890,144.795 207.910,139.727 206.235 C 134.843 204.619,134.363 204.613,133.538 206.154 M281.711 208.769 C 282.927 210.253,279.775 211.913,278.473 210.475 C 277.893 209.833,277.600 209.014,277.822 208.654 C 278.378 207.754,280.941 207.830,281.711 208.769 M100.348 209.252 C 101.841 210.051,101.906 211.692,100.445 211.692 C 99.843 211.692,98.731 211.258,97.973 210.727 C 95.640 209.093,97.682 207.825,100.348 209.252 M99.011 213.370 C 99.144 213.446,98.897 213.937,98.463 214.460 C 97.759 215.308,97.578 215.276,96.802 214.167 C 96.322 213.483,95.531 212.923,95.042 212.923 C 94.142 212.923,93.860 212.192,94.509 211.543 C 94.790 211.261,96.675 212.026,99.011 213.370 M286.825 216.615 C 287.156 216.615,288.144 216.146,289.019 215.573 C 290.515 214.593,290.657 214.593,291.373 215.573 C 291.793 216.146,292.544 216.615,293.042 216.615 C 294.552 216.615,294.829 217.376,293.752 218.565 C 292.503 219.945,291.909 219.959,288.175 218.696 C 282.587 216.807,280.559 214.613,283.400 213.532 C 284.255 213.207,285.155 212.453,285.400 211.855 C 285.695 211.138,285.910 211.761,286.034 213.692 C 286.137 215.300,286.493 216.615,286.825 216.615 M275.956 216.075 L 277.616 217.381 275.614 218.599 C 273.698 219.764,273.578 219.769,272.806 218.714 C 270.654 215.770,273.034 213.777,275.956 216.075 M116.000 220.923 C 115.791 221.262,115.204 221.538,114.697 221.538 C 114.189 221.538,113.945 221.262,114.154 220.923 C 114.363 220.585,114.950 220.308,115.457 220.308 C 115.965 220.308,116.209 220.585,116.000 220.923 M279.586 225.342 C 277.598 227.417,278.227 228.717,280.754 227.756 C 282.072 227.256,282.559 227.409,283.778 228.707 L 285.231 230.254 283.538 229.830 C 281.770 229.386,280.965 230.925,282.615 231.594 C 283.195 231.829,283.157 232.070,282.462 232.568 C 281.130 233.522,279.827 233.121,279.024 231.510 C 278.640 230.739,277.765 229.495,277.081 228.746 C 273.493 224.820,273.328 222.523,276.636 222.523 C 277.809 222.523,278.769 222.259,278.769 221.935 C 278.769 221.612,279.329 221.854,280.013 222.473 C 281.255 223.598,281.255 223.600,279.586 225.342 M116.615 224.615 C 117.228 225.292,117.452 225.846,117.114 225.846 C 116.775 225.846,115.997 225.292,115.385 224.615 C 114.772 223.938,114.548 223.385,114.886 223.385 C 115.225 223.385,116.003 223.938,116.615 224.615 M114.125 226.560 C 115.735 227.294,116.094 227.987,115.163 228.562 C 114.380 229.046,111.395 227.507,111.389 226.615 C 111.383 225.658,112.112 225.643,114.125 226.560 M111.393 230.769 C 114.981 230.769,112.662 232.862,108.486 233.393 C 104.490 233.901,103.489 231.393,106.666 228.833 C 107.852 227.878,107.989 227.904,109.083 229.295 C 109.721 230.106,110.761 230.769,111.393 230.769 M130.338 228.431 C 131.138 229.230,131.373 231.632,130.615 231.261 C 130.362 231.136,128.909 230.502,127.388 229.852 C 124.776 228.735,124.708 228.645,126.157 228.242 C 128.528 227.582,129.535 227.628,130.338 228.431 M128.267 232.674 C 129.237 233.580,128.260 233.914,126.547 233.263 C 124.545 232.502,124.331 231.123,126.308 231.720 C 127.069 231.950,127.951 232.380,128.267 232.674 M122.036 233.188 C 121.786 234.144,122.213 234.522,124.227 235.125 C 126.891 235.924,126.976 236.641,124.515 237.577 C 121.494 238.725,119.073 235.019,121.354 232.738 C 122.337 231.755,122.400 231.796,122.036 233.188 M103.616 254.213 C 101.360 254.860,100.884 255.373,98.461 259.770 L 96.638 263.077 96.627 260.462 C 96.617 258.253,96.807 257.846,97.846 257.846 C 98.803 257.846,99.077 257.436,99.077 256.000 L 99.077 254.154 92.615 254.154 L 86.154 254.154 86.154 256.000 C 86.154 257.559,86.393 257.846,87.692 257.846 L 89.231 257.846 89.231 266.769 L 89.231 275.692 87.692 275.692 C 86.462 275.692,86.154 276.000,86.154 277.231 L 86.154 278.769 92.615 278.769 L 99.077 278.769 99.077 277.231 C 99.077 276.103,98.749 275.692,97.846 275.692 C 96.741 275.692,96.615 275.282,96.615 271.671 C 96.615 267.785,96.659 267.672,97.898 268.336 C 99.975 269.447,102.021 275.692,100.308 275.692 C 99.969 275.692,99.692 276.385,99.692 277.231 C 99.692 278.764,99.713 278.769,105.538 278.769 C 111.364 278.769,111.385 278.764,111.385 277.231 C 111.385 276.138,111.051 275.692,110.232 275.692 C 109.365 275.692,108.984 275.087,108.689 273.247 C 108.206 270.222,105.302 266.784,102.431 265.836 C 99.882 264.995,99.835 264.656,101.923 262.175 C 103.414 260.403,103.746 260.286,106.231 260.659 L 108.923 261.063 108.923 259.106 C 108.923 258.030,109.200 256.633,109.538 256.001 C 110.039 255.064,109.898 254.778,108.769 254.454 C 106.122 253.693,105.527 253.665,103.616 254.213 M235.077 256.000 C 235.077 257.559,235.316 257.846,236.615 257.846 L 238.154 257.846 238.154 266.769 L 238.154 275.692 236.615 275.692 C 235.385 275.692,235.077 276.000,235.077 277.231 L 235.077 278.769 254.154 278.769 L 273.231 278.769 273.231 277.231 C 273.231 276.000,272.923 275.692,271.692 275.692 L 270.154 275.692 270.154 266.769 L 270.154 257.846 271.692 257.846 C 272.991 257.846,273.231 257.559,273.231 256.000 L 273.231 254.154 254.154 254.154 L 235.077 254.154 235.077 256.000 M250.462 266.769 L 250.462 275.692 248.000 275.692 L 245.538 275.692 245.538 266.769 L 245.538 257.846 248.000 257.846 L 250.462 257.846 250.462 266.769 M262.769 266.769 L 262.769 275.692 260.308 275.692 L 257.846 275.692 257.846 266.769 L 257.846 257.846 260.308 257.846 L 262.769 257.846 262.769 266.769 M114.955 262.615 C 110.100 267.804,110.160 274.230,115.102 278.388 C 118.844 281.537,123.572 278.937,125.440 272.702 C 127.791 264.856,119.932 257.295,114.955 262.615 M131.102 262.535 C 127.208 265.812,126.678 268.321,127.613 279.077 C 128.261 286.543,128.396 287.090,129.633 287.266 C 131.535 287.537,132.923 285.217,132.923 281.768 L 132.923 278.886 135.231 279.194 C 142.088 280.108,144.295 270.007,138.673 263.439 C 136.071 260.400,133.942 260.145,131.102 262.535 M146.259 263.350 C 141.961 268.107,141.963 273.934,146.266 277.992 C 149.906 281.425,153.650 280.258,156.254 274.880 C 160.632 265.837,152.493 256.449,146.259 263.350 M176.333 262.524 C 175.517 263.340,175.377 264.792,175.520 270.985 L 175.692 278.462 183.385 278.462 L 191.077 278.462 191.024 275.853 C 190.945 271.938,187.461 268.923,183.017 268.923 C 181.402 268.923,181.385 268.881,181.801 265.750 C 182.108 263.434,182.005 262.439,181.419 262.067 C 180.096 261.228,177.386 261.471,176.333 262.524 M273.822 262.169 C 273.122 262.602,273.208 263.606,274.332 268.114 C 275.077 271.097,275.756 274.646,275.843 276.000 C 275.997 278.410,276.053 278.465,278.512 278.646 L 281.023 278.830 280.457 282.569 C 279.747 287.261,280.597 288.537,283.813 287.612 L 285.846 287.028 285.626 279.653 C 285.349 270.374,286.163 267.726,289.159 268.166 C 290.715 268.394,291.082 268.231,291.102 267.301 C 291.120 266.457,291.385 266.642,292.106 268.000 C 292.645 269.015,293.168 269.942,293.268 270.059 C 294.104 271.032,297.115 269.311,296.673 268.112 C 296.030 266.373,296.454 265.231,297.744 265.229 C 298.645 265.228,298.746 265.966,298.576 271.300 C 298.369 277.815,298.961 279.385,301.623 279.385 C 304.849 279.385,305.231 278.563,305.231 271.626 C 305.231 265.775,305.336 265.162,306.308 265.363 C 307.096 265.527,307.345 266.098,307.237 267.497 C 307.115 269.087,307.352 269.474,308.650 269.800 C 310.332 270.222,311.385 269.848,311.385 268.828 C 311.385 268.477,311.966 267.374,312.676 266.377 C 315.704 262.124,314.933 261.846,300.122 261.846 C 284.630 261.846,284.070 262.080,282.754 269.098 C 282.129 272.426,281.572 271.919,280.782 267.303 C 280.397 265.058,279.856 263.017,279.580 262.767 C 278.757 262.026,274.730 261.607,273.822 262.169 M163.385 262.769 C 163.175 263.108,163.190 263.684,163.416 264.051 C 163.643 264.417,163.004 265.871,161.996 267.282 C 156.338 275.205,156.167 278.374,161.385 278.646 C 164.859 278.827,166.491 277.349,164.308 276.000 C 163.488 275.494,163.528 273.104,164.390 270.963 C 165.076 269.260,165.109 269.299,166.298 273.231 C 167.870 278.431,168.205 278.769,171.768 278.769 C 175.382 278.769,175.357 278.997,172.608 271.077 C 171.434 267.692,170.470 264.300,170.467 263.538 C 170.461 262.042,164.251 261.367,163.385 262.769 M205.980 262.584 C 205.281 263.794,205.008 269.025,205.409 273.538 L 205.846 278.462 208.923 278.462 L 212.000 278.462 211.809 274.769 C 211.625 271.208,211.685 271.040,213.501 270.029 L 215.385 268.980 215.394 273.106 C 215.406 278.369,215.759 278.898,219.099 278.655 L 221.769 278.462 221.808 270.308 L 221.846 262.154 218.615 262.154 C 215.588 262.154,215.385 262.250,215.385 263.677 C 215.385 264.751,214.833 265.485,213.508 266.170 L 211.631 267.140 211.816 264.801 L 212.000 262.462 209.133 262.276 C 207.556 262.174,206.137 262.313,205.980 262.584 M119.497 268.712 C 121.102 270.493,121.564 273.142,120.350 273.607 C 119.008 274.122,117.138 272.362,116.287 269.784 C 115.134 266.291,116.810 265.731,119.497 268.712 M135.117 269.617 C 136.298 271.899,136.282 275.077,135.091 275.077 C 133.295 275.077,132.076 272.088,132.237 268.078 C 132.321 265.989,133.593 266.668,135.117 269.617 M150.817 268.260 C 152.771 270.215,153.376 273.846,151.747 273.846 C 150.323 273.846,147.692 270.222,147.692 268.260 C 147.692 265.985,148.541 265.985,150.817 268.260 M183.363 273.806 C 184.248 275.460,184.175 275.692,182.769 275.692 C 181.867 275.692,181.538 275.282,181.538 274.154 C 181.538 272.322,182.473 272.143,183.363 273.806 " stroke="none" fill="#000000" fill-rule="evenodd"></path></g></svg>